<?xml version="1.0" encoding="UTF-8"?>
<svg width="22px" height="13px" viewBox="0 0 22 13" version="1.1" xmlns="http://www.w3.org/2000/svg" xmlns:xlink="http://www.w3.org/1999/xlink">
    <!-- Generator: sketchtool 64 (101010) - https://sketch.com -->
    <title>01C81E6B-ED06-41BF-816F-94BDBF854176</title>
    <desc>Created with sketchtool.</desc>
    <g id="Stylesheet" stroke="none" stroke-width="1" fill="none" fill-rule="evenodd">
        <g transform="translate(-597.000000, -674.000000)" fill="#595959" fill-rule="nonzero" id="BUTTONS">
            <g transform="translate(100.000000, 597.000000)">
                <g id="BTN-/-CITE" transform="translate(487.000000, 65.000000)">
                    <path d="M31.9489295,20.1726607 C31.628696,18.1648754 29.8058286,16.7340399 27.7366277,16.641728 C28.2539279,14.8416446 29.5102284,14.1262269 31.0374958,13.710823 C31.1852958,13.664667 31.1606625,13.5261991 31.1606625,13.5261991 L30.914329,12.0953636 C30.914329,12.0953636 30.8896957,11.9799736 30.6926289,12.0030516 C25.4210934,12.5569234 21.8492585,16.3186361 22.5143588,20.8880784 C23.1301924,24.0497633 25.7659602,25.2728968 28.2046612,24.949805 C30.6433623,24.5805571 32.3184296,22.4573819 31.9489295,20.1726607 L31.9489295,20.1726607 Z M15.2937253,16.641737 C15.7865887,14.8416501 17.0926769,14.126231 18.5959104,13.7108263 C18.7437694,13.6646703 18.7191262,13.5262021 18.7191262,13.5262021 L18.4973377,12.0953638 C18.4973377,12.0953638 18.4726945,11.9799736 18.2755491,12.0030516 C13.0019102,12.5338465 9.45329342,16.2955664 10.0693727,20.8650177 C10.7100952,24.0497867 13.3715578,25.2729226 15.7865887,24.9498301 C18.2262628,24.5805816 19.9019985,22.4574022 19.5077078,20.1726766 C19.1873465,18.1418094 17.3883949,16.7109711 15.2937253,16.641737 Z" id="Shape"></path>
                </g>
            </g>
        </g>
    </g>
</svg>