<?xml version="1.0" encoding="UTF-8"?>
<svg width="34px" height="34px" viewBox="0 0 34 34" version="1.1" xmlns="http://www.w3.org/2000/svg" xmlns:xlink="http://www.w3.org/1999/xlink">
    <title>600CE05C-914F-45CF-A397-E5E6C1A72E10</title>
    <g id="Stylesheet" stroke="none" stroke-width="1" fill="none" fill-rule="evenodd">
        <g transform="translate(-1130.000000, -796.000000)" id="BUTTONS">
            <g transform="translate(100.000000, 597.000000)">
                <g id="Dropbox-icon" transform="translate(1031.000000, 200.000000)">
                    <circle id="Oval" stroke="#595959" cx="16" cy="16" r="16"></circle>
                    <path d="M16.0132946,18.6511508 L20.5549528,22.4198056 L22.4982149,21.1510765 L22.4982149,22.5733099 L16.0132946,26.4623643 L9.52816336,22.5733099 L9.52816336,21.1510765 L11.4716363,22.4198056 L16.0132946,18.6511508 Z M9.47485861,13.8086411 L15.9998419,17.8379158 L11.4716785,21.6177461 L5.00004217,17.3923741 L9.47485861,13.8086411 Z M22.5251836,13.8086833 L27,17.3924162 L20.5283637,21.6177883 L15.9997786,17.837958 L22.5251836,13.8086833 Z M11.4716363,6 L15.9997997,9.77961948 L9.47481643,13.8086833 L5,10.2253721 L11.4716363,6 Z M20.5283004,6 L26.9999367,10.2253721 L22.5251203,13.8086833 L15.9997153,9.77961948 L20.5283004,6 Z" id="Combined-Shape" fill="#595959"></path>
                </g>
            </g>
        </g>
    </g>
</svg>