<?xml version="1.0" encoding="UTF-8"?>
<svg width="34px" height="34px" viewBox="0 0 34 34" version="1.1" xmlns="http://www.w3.org/2000/svg" xmlns:xlink="http://www.w3.org/1999/xlink">
    <!-- Generator: sketchtool 64 (101010) - https://sketch.com -->
    <title>23EE6DDE-B48E-45C2-81DA-D31766DE9FB7</title>
    <desc>Created with sketchtool.</desc>
    <g id="Stylesheet" stroke="none" stroke-width="1" fill="none" fill-rule="evenodd">
        <g transform="translate(-1086.000000, -796.000000)" id="BUTTONS">
            <g transform="translate(100.000000, 597.000000)">
                <g id="PDF-icon" transform="translate(987.000000, 200.000000)">
                    <circle id="Oval" stroke="#595959" cx="16" cy="16" r="16"></circle>
                    <path d="M18.0083806,16.8785719 C17.5924391,16.4181996 17.1983893,15.9139823 16.8262311,15.45361 C16.6510979,15.2343851 16.4978563,15.0370827 16.3446147,14.8397803 L16.322723,14.8178578 C16.5416396,14.1821056 16.6729895,13.6340434 16.7167729,13.2394385 C16.7824478,12.231004 16.6729895,11.5733293 16.3665063,11.244492 C16.1694814,11.0252671 15.8411066,10.9375771 15.5565151,11.0471895 C15.3375985,11.112957 15.0748986,11.3102594 14.8997654,11.7925542 C14.6589571,12.5379189 14.7684154,13.8313458 15.4689484,14.9274703 C15.1624652,15.7166799 14.7465238,16.6374245 14.2649073,17.5143241 C13.3673494,17.821239 12.6668164,18.2377663 12.1414166,18.7419835 C11.4627753,19.3996582 11.2000754,20.0354104 11.3971003,20.5177052 C11.5065586,20.8026976 11.7911501,21 12.1414166,21 C12.3822249,21 12.6449247,20.91231 12.885733,20.7588526 C13.520591,20.3423253 14.3524739,18.9612084 14.7903071,18.1719988 C15.7097567,17.8870064 16.6073146,17.777394 17.0670394,17.733549 C17.2859559,17.7116265 17.4829808,17.689704 17.6800057,17.689704 C18.489997,18.5446811 19.1467467,18.9831309 19.7597131,19.0927434 C19.8910631,19.1146659 20.0005213,19.1365884 20.1318713,19.1365884 C20.6353794,19.1365884 21.0294292,18.9392859 21.2264541,18.6104486 C21.3796957,18.3693012 21.357804,18.0623863 21.2264541,17.7993165 C20.8980793,17.2074092 19.8691714,16.9004944 18.3586471,16.9004944 C18.2272972,16.8785719 18.1178389,16.8785719 18.0083806,16.8785719 Z M12.4697915,20.1011779 C12.3603332,20.1888679 12.2289833,20.2327129 12.1414166,20.2327129 C12.119525,20.2327129 12.119525,20.2327129 12.0976333,20.2327129 C12.0757417,20.1669454 12.1414166,19.8161855 12.6668164,19.3119683 C12.9076246,19.0708209 13.2359995,18.851596 13.6081576,18.6323711 C13.1484328,19.3996582 12.7105997,19.9477205 12.4697915,20.1011779 Z M15.62219,12.0337016 C15.687865,11.8583217 15.75354,11.7925542 15.7973233,11.7706317 C15.7973233,11.7706317 15.7973233,11.7706317 15.7973233,11.7706317 C15.8411066,11.8144767 16.0162398,12.0775466 15.9286732,13.1736711 C15.9067816,13.3709735 15.8629982,13.6121209 15.7973233,13.8971132 C15.5346234,13.2394385 15.4689484,12.5159964 15.62219,12.0337016 Z M17.0013644,16.9443394 C16.5854229,16.9881843 15.9724565,17.0539518 15.2719235,17.2293317 C15.5346234,16.6812695 15.7973233,16.1551297 15.9943482,15.6509124 C16.0600232,15.7386024 16.1475898,15.8262924 16.2132648,15.9359048 C16.454073,16.2428197 16.7386645,16.615502 17.0451477,16.9443394 L17.0013644,16.9443394 Z M20.5478127,18.1500763 C20.5697044,18.1719988 20.5697044,18.1719988 20.5478127,18.1939213 C20.5259211,18.2596888 20.3726795,18.3473787 20.1099796,18.3473787 C20.0443046,18.3473787 19.956738,18.3473787 19.8910631,18.3254562 C19.5845799,18.2596888 19.2124217,18.0404639 18.7745886,17.6677815 C19.956738,17.7116265 20.4383545,17.9966189 20.5478127,18.1500763 Z" id="Shape" fill="#595959" fill-rule="nonzero"></path>
                    <path d="M19.3127367,6 L9.12452652,6 C8.49479167,6 8,6.48888889 8,7.11111111 L8,24.8888889 C8,25.5111111 8.5172822,26 9.12452652,26 L22.7088068,26 C23.3385417,26 23.8333333,25.4888889 23.8333333,24.8888889 L23.8333333,10.4666667 L19.3127367,6 Z M19.3127367,7.57777778 L22.2365057,10.4666667 L19.3127367,10.4666667 L19.3127367,7.57777778 Z M9.12452652,24.8888889 L9.12452652,7.11111111 L18.1657197,7.11111111 L18.1657197,10.4666667 C18.1657197,11.0888889 18.6605114,11.5777778 19.2902462,11.5777778 L22.6863163,11.5777778 L22.7088068,24.8888889 L9.12452652,24.8888889 Z" id="Shape" fill="#595959" fill-rule="nonzero"></path>
                </g>
            </g>
        </g>
    </g>
</svg>