<?xml version="1.0" encoding="UTF-8"?>
<svg width="19px" height="24px" viewBox="0 0 19 24" version="1.1" xmlns="http://www.w3.org/2000/svg" xmlns:xlink="http://www.w3.org/1999/xlink">
    <!-- Generator: sketchtool 64 (101010) - https://sketch.com -->
    <title>3ECBBF50-FD08-412A-943D-2CFC5E025A16</title>
    <desc>Created with sketchtool.</desc>
    <g id="Stylesheet" stroke="none" stroke-width="1" fill="none" fill-rule="evenodd">
        <g transform="translate(-926.000000, -668.000000)" id="BUTTONS">
            <g transform="translate(100.000000, 597.000000)">
                <g id="BTN-/-RIGHTS" transform="translate(816.000000, 65.000000)">
                    <g id="ICON-/-Rights" transform="translate(10.000000, 6.000000)">
                        <path d="M13.5752841,0 L1.34943182,0 C0.59375,0 0,0.586666667 0,1.33333333 L0,22.6666667 C0,23.4133333 0.620738636,24 1.34943182,24 L17.6505682,24 C18.40625,24 19,23.3866667 19,22.6666667 L19,5.36 L13.5752841,0 Z M13.5752841,1.89333333 L17.0838068,5.36 L13.5752841,5.36 L13.5752841,1.89333333 Z M1.34943182,22.6666667 L1.34943182,1.33333333 L12.1988636,1.33333333 L12.1988636,5.36 C12.1988636,6.10666667 12.7926136,6.69333333 13.5482955,6.69333333 L17.6235795,6.69333333 L17.6505682,22.6666667 L1.34943182,22.6666667 Z" id="Shape" fill="#595959" fill-rule="nonzero"></path>
                        <circle id="Oval" stroke="#595959" stroke-width="1.5" fill="#595959" cx="9.5" cy="13.5355339" r="5.5"></circle>
                        <polyline id="Path-2" stroke="#FFFFFF" stroke-width="1.5" transform="translate(9.500000, 13.035534) rotate(45.000000) translate(-9.500000, -13.035534) " points="8 16.0355339 11 16.0355339 11 10.0355339"></polyline>
                    </g>
                </g>
            </g>
        </g>
    </g>
</svg>