<?xml version="1.0" encoding="UTF-8"?>
<svg width="24px" height="27px" viewBox="-1 -1 25 28" version="1.1" xmlns="http://www.w3.org/2000/svg" xmlns:xlink="http://www.w3.org/1999/xlink">
    <!-- Generator: sketchtool 64 (101010) - https://sketch.com -->
    <title>86478C83-66CF-45D6-9D08-B2C16695D754</title>
    <desc>Created with sketchtool.</desc>
    <g id="Stylesheet" stroke="none" stroke-width="1" fill="none" fill-rule="evenodd">
        <g transform="translate(-392.000000, -668.000000)" id="BUTTONS">
            <g transform="translate(100.000000, 597.000000)">
                <g id="BTN-/-DOWNLOAD" transform="translate(282.000000, 65.000000)">
                    <g id="PDF-icon" transform="translate(10.000000, 6.000000)">
                        <path d="M12.0100567,13.0542863 C11.5109269,12.5018395 11.0380672,11.8967788 10.5914774,11.344332 C10.3813175,11.0812622 10.1974275,10.8444993 10.0135376,10.6077364 L9.98726764,10.5814294 C10.2499675,9.81852674 10.4075874,9.16085204 10.4601274,8.68732625 C10.5389374,7.47720481 10.4075874,6.68799517 10.0398076,6.29339035 C9.80337773,6.03032047 9.40932791,5.92509252 9.06781807,6.05662746 C8.80511819,6.13554842 8.48987833,6.37231131 8.27971843,6.95106505 C7.99074856,7.84550264 8.1220985,9.39761493 8.96273812,10.7129643 C8.59495829,11.6600159 8.09582852,12.7649094 7.51788878,13.8171889 C6.44081928,14.1854867 5.60017967,14.6853195 4.96969996,15.2903802 C4.15533034,16.0795899 3.84009048,16.8424925 4.07652038,17.4212463 C4.20787031,17.7632371 4.54938016,18 4.96969996,18 C5.25866983,18 5.57390968,17.894772 5.86287955,17.7106231 C6.6247092,17.2107904 7.62296873,15.5534501 8.14836849,14.6063986 C9.25170798,14.2644077 10.3287775,14.1328728 10.8804472,14.0802588 C11.1431471,14.0539518 11.379577,14.0276448 11.6160069,14.0276448 C12.5879964,15.0536173 13.3760961,15.5797571 14.1116557,15.711292 C14.2692757,15.737599 14.4006256,15.763906 14.5582455,15.763906 C15.1624552,15.763906 15.635315,15.5271431 15.8717449,15.1325383 C16.0556348,14.8431614 16.0293648,14.4748636 15.8717449,14.1591798 C15.4776951,13.4488911 14.2430057,13.0805932 12.4303765,13.0805932 C12.2727566,13.0542863 12.1414066,13.0542863 12.0100567,13.0542863 Z M5.36374978,16.9214135 C5.23239984,17.0266414 5.07477991,17.0792554 4.96969996,17.0792554 C4.94342997,17.0792554 4.94342997,17.0792554 4.91715999,17.0792554 C4.89089,17.0003345 4.96969996,16.5794226 5.60017967,15.9743619 C5.88914954,15.6849851 6.28319935,15.4219152 6.72978915,15.1588453 C6.1781194,16.0795899 5.65271965,16.7372646 5.36374978,16.9214135 Z M9.14662803,7.24044192 C9.22543799,7.02998601 9.30424796,6.95106505 9.35678793,6.92475806 C9.35678793,6.92475806 9.35678793,6.92475806 9.35678793,6.92475806 C9.40932791,6.97737204 9.61948781,7.29305589 9.51440786,8.60840529 C9.48813787,8.84516818 9.4355979,9.13454505 9.35678793,9.47653589 C9.04154808,8.68732625 8.96273812,7.81919565 9.14662803,7.24044192 Z M10.8016373,13.1332072 C10.3025075,13.1858212 9.56694784,13.2647422 8.72630822,13.4751981 C9.04154808,12.8175234 9.35678793,12.1861557 9.59321782,11.5810949 C9.67202779,11.6863229 9.77710774,11.7915508 9.8559177,11.9230858 C10.1448876,12.2913836 10.4863974,12.7386024 10.8541772,13.1332072 L10.8016373,13.1332072 Z M15.0573753,14.5800916 C15.0836453,14.6063986 15.0836453,14.6063986 15.0573753,14.6327055 C15.0311053,14.7116265 14.8472154,14.8168545 14.5319755,14.8168545 C14.4531656,14.8168545 14.3480856,14.8168545 14.2692757,14.7905475 C13.9014958,14.7116265 13.454906,14.4485566 12.9295063,14.0013378 C14.3480856,14.0539518 14.9260254,14.3959426 15.0573753,14.5800916 Z" id="Shape" fill="#FF0000" fill-rule="nonzero"></path>
                        <path d="M13.5752841,0 L1.34943182,0 C0.59375,0 0,0.586666667 0,1.33333333 L0,22.6666667 C0,23.4133333 0.620738636,24 1.34943182,24 L17.6505682,24 C18.40625,24 19,23.3866667 19,22.6666667 L19,5.36 L13.5752841,0 Z M13.5752841,1.89333333 L17.0838068,5.36 L13.5752841,5.36 L13.5752841,1.89333333 Z M1.34943182,22.6666667 L1.34943182,1.33333333 L12.1988636,1.33333333 L12.1988636,5.36 C12.1988636,6.10666667 12.7926136,6.69333333 13.5482955,6.69333333 L17.6235795,6.69333333 L17.6505682,22.6666667 L1.34943182,22.6666667 Z" id="Shape" fill="#595959" fill-rule="nonzero"></path>
                        <circle id="Oval" fill="#595959" cx="18.5" cy="21.5" r="5.5"></circle>
                        <polygon id="Fill-4" fill="#FFFFFF" points="22 21.9856665 21.3555374 21.3385646 18.9558648 23.7475413 18.9558648 18 18.0441352 18 18.0441352 23.7475413 15.6444626 21.3385646 15 21.9856665 18.5 25.5"></polygon>
                    </g>
                </g>
            </g>
        </g>
    </g>
</svg>