<?xml version="1.0" encoding="UTF-8"?>
<svg width="38px" height="38px" viewBox="0 0 38 38" version="1.1" xmlns="http://www.w3.org/2000/svg" xmlns:xlink="http://www.w3.org/1999/xlink">
    <!-- Generator: sketchtool 64 (101010) - https://sketch.com -->
    <title>9F7FC161-AC80-4806-BA3B-6D15893C81B4</title>
    <desc>Created with sketchtool.</desc>
    <g id="Stylesheet" stroke="none" stroke-width="1" fill="none" fill-rule="evenodd">
        <g transform="translate(-671.000000, -794.000000)" id="BUTTONS">
            <g transform="translate(100.000000, 597.000000)">
                <g id="ICON-/-SHARE" transform="translate(572.000000, 198.000000)">
                    <circle id="Oval" stroke="#595959" cx="18" cy="18" r="18"></circle>
                    <path d="M26.7560098,16.3999964 L22.9862381,13.6270743 L19.8414756,11.329365 C18.9660684,10.6699692 18.4711873,11.0831091 18.5510386,11.8422284 L18.8438268,13.6341974 C12.842161,13.9242095 9.08421913,18.3181462 8.00770482,23.5811014 C7.93968332,23.91894 8.33795418,24.1407738 8.57652236,23.8965531 C11.0775451,21.3373241 14.4667907,20.2200146 18.8339686,20.1986453 L18.5510386,21.9356647 C18.4711873,22.6947839 18.9660684,23.1058887 19.8414756,22.4475105 L22.9862381,20.1498011 L26.7560098,17.3768791 C27.0813301,17.1377463 27.0813301,16.6391292 26.7560098,16.3999964" id="Fill-1" fill="#595959"></path>
                </g>
            </g>
        </g>
    </g>
</svg>