<svg width="172" height="41" viewBox="0 0 172 41" fill="none" xmlns="http://www.w3.org/2000/svg">
<g clip-path="url(#clip0_922_16942)">
<path d="M32.5163 22.0171C32.1796 22.8682 31.5809 23.7933 31.5809 23.7933C31.2067 24.3484 30.8325 24.8664 30.4209 25.3475C31.1318 25.3105 33.6389 25.0144 35.2853 21.2771L32.5163 22.0171Z" fill="#10147E"/>
<path d="M20.7297 0C9.27974 0 0 9.1769 0 20.5C0 31.8231 9.27974 41 20.7297 41C32.1797 41 41.4595 31.8231 41.4595 20.5C41.4595 9.1769 32.1797 0 20.7297 0ZM23.1245 12.1372C20.6175 15.3195 20.8046 17.3177 20.8046 17.3177C16.8757 14.8384 23.1245 12.1372 23.1245 12.1372ZM28.1011 18.2428L27.6895 19.2419H14.2938L13.8448 18.2428H28.1011ZM27.465 19.7969L27.016 20.796H14.9299L14.5183 19.7969H27.465ZM7.48366 13.7283C9.95327 19.5749 7.52108 19.4639 7.52108 19.4639C4.9018 19.3899 7.48366 13.7283 7.48366 13.7283ZM29.4856 26.1986C27.2779 28.3448 24.2096 29.6399 20.8794 29.6399C16.0899 29.6399 11.9364 26.9386 9.84101 23.0162H6.06176L5.3134 21.2771H6.02435V20.722H9.05523V21.2771C9.05523 21.2771 27.5773 21.2771 31.8056 21.2771L36.4828 19.9819C36.4828 19.9819 35.0984 26.6426 29.4856 26.1986Z" fill="#10147E"/>
<path d="M51.9366 18.7238V7.1047H47.7832V5.80957H57.961V7.1047H53.7701V18.7238H51.9366Z" fill="#10147E"/>
<path d="M62.002 17.7247C61.3659 18.3538 60.5427 18.9458 59.6821 18.9458C58.1105 18.9458 57.0254 17.8357 57.0254 16.0966C57.0254 14.5054 58.4099 13.4693 60.3556 12.9143L62.6007 12.2112C62.5259 11.1011 61.6653 10.361 60.7298 10.361C59.6447 10.361 58.9711 10.8051 58.2976 11.3601L57.6615 10.546C58.597 9.65794 59.5324 9.2879 60.8421 9.2879C62.2265 9.2879 64.2845 9.73195 64.2845 12.4332V16.5036C64.2845 17.2067 64.3594 18.0948 64.6961 18.7608H62.8626C62.6381 18.3908 62.6007 17.7987 62.6007 17.2067L62.002 17.7247ZM60.9917 13.8023C59.5324 14.2464 58.7466 14.9495 58.7466 16.0966C58.7466 17.0587 59.4202 17.6507 60.0937 17.6507C61.2911 17.6507 62.8252 16.2076 62.6007 13.3213L60.9917 13.8023Z" fill="#10147E"/>
<path d="M67.428 9.32491C68.3635 11.6561 69.3363 14.0244 70.2718 16.7996H70.3092C71.2821 14.0244 72.255 11.6561 73.2278 9.32491L74.6871 9.65795L69.8976 20.352C69.037 22.3132 67.877 23.3493 66.268 23.3493H65.4448V22.1652H66.0809C67.2409 22.1652 68.0641 21.8691 69.3737 18.2058L65.7068 9.76896L67.428 9.32491Z" fill="#10147E"/>
<path d="M76.2212 18.7238V5.1805H77.8676V18.7238H76.2212Z" fill="#10147E"/>
<path d="M80.0005 14.0244C80.0005 11.0271 82.2456 9.2879 84.6029 9.2879C86.9603 9.2879 89.2054 11.0271 89.2054 14.0244C89.2054 16.8736 87.3719 18.9828 84.6029 18.9828C81.8714 18.9458 80.0005 16.8736 80.0005 14.0244ZM81.834 14.0244C81.834 15.7635 82.4327 17.7987 84.6029 17.7987C86.8106 17.7987 87.4093 15.7635 87.4093 14.0244C87.4093 12.3592 86.7358 10.472 84.6029 10.472C82.5075 10.472 81.834 12.3592 81.834 14.0244Z" fill="#10147E"/>
<path d="M92.9843 10.657L93.6578 9.95397C94.032 9.58393 94.6681 9.2879 95.0423 9.2879C95.4539 9.2879 96.0526 9.58393 96.5765 10.176L95.8281 11.2491C95.4165 11.0641 95.0049 10.8791 94.5933 10.8791C93.7327 10.8791 93.0217 11.7301 93.0217 13.7653V18.7238H91.3379V9.50992H92.9843V10.657Z" fill="#10147E"/>
<path d="M124.416 7.1047H119.776V12.0262H124.341V13.3213H119.776V18.7238H117.98V5.80957H124.416V7.1047Z" fill="#10147E"/>
<path d="M128.42 10.657L129.093 9.95397C129.505 9.58393 130.104 9.2879 130.478 9.2879C130.889 9.2879 131.488 9.58393 132.012 10.176L131.264 11.2491C130.852 11.0641 130.44 10.8791 130.029 10.8791C129.168 10.8791 128.457 11.7301 128.457 13.7653V18.7238H126.773V9.50992H128.42V10.657Z" fill="#10147E"/>
<path d="M137.625 17.7247C136.988 18.3538 136.165 18.9458 135.305 18.9458C133.733 18.9458 132.648 17.8357 132.648 16.0966C132.648 14.5054 134.032 13.4693 135.978 12.9143L138.223 12.2112C138.148 11.1011 137.288 10.361 136.352 10.361C135.267 10.361 134.594 10.8051 133.92 11.3601L133.284 10.546C134.22 9.65794 135.155 9.2879 136.465 9.2879C137.849 9.2879 139.907 9.73195 139.907 12.4332V16.5036C139.907 17.2067 139.982 18.0948 140.319 18.7608H138.485C138.261 18.3908 138.223 17.7987 138.223 17.2067L137.625 17.7247ZM136.614 13.8023C135.155 14.2464 134.369 14.9495 134.369 16.0966C134.369 17.0587 135.043 17.6507 135.716 17.6507C136.914 17.6507 138.448 16.2076 138.223 13.3213L136.614 13.8023Z" fill="#10147E"/>
<path d="M144.247 10.657C145.108 9.73195 146.455 9.2879 147.428 9.2879C149.561 9.2879 150.721 10.472 150.721 12.8032V18.7608H149.037V13.1733C149.037 11.4341 148.288 10.546 146.792 10.546C145.482 10.546 144.247 11.4341 144.247 13.2103V18.7608H142.563V9.54693H144.21L144.247 10.657Z" fill="#10147E"/>
<path d="M160.674 17.9838C159.776 18.6128 158.654 18.9458 157.868 18.9458C153.452 18.9458 152.891 15.3565 152.891 14.0984C152.891 11.8041 154.425 9.2879 157.943 9.2879C158.878 9.2879 159.739 9.50992 160.45 10.028L159.888 10.9531C159.364 10.694 158.654 10.472 157.98 10.472C156.446 10.472 154.725 11.4711 154.725 13.9874C154.725 15.9115 155.697 17.7247 157.98 17.7247C158.766 17.7247 159.514 17.5397 160.263 17.0587L160.674 17.9838Z" fill="#10147E"/>
<path d="M162.246 6.47563C162.246 6.03159 162.62 5.51353 163.293 5.51353C163.967 5.51353 164.341 6.03159 164.341 6.47563C164.341 6.95668 164.117 7.58574 163.293 7.58574C162.508 7.58574 162.246 6.95668 162.246 6.47563ZM164.154 9.50992V18.7238H162.47V9.50992H164.154Z" fill="#10147E"/>
<path d="M171.301 10.9901C170.628 10.546 170.104 10.398 169.58 10.398C168.981 10.398 168.233 10.694 168.233 11.4341C168.233 12.2112 169.094 12.5812 170.141 13.3953C171.339 14.2834 172.124 15.0605 172.124 16.3556C172.124 17.9097 170.59 18.9458 168.869 18.9458C167.821 18.9458 166.624 18.5018 165.988 17.7987L166.811 16.8736C167.335 17.3547 168.083 17.7987 168.832 17.7987C169.617 17.7987 170.403 17.3917 170.403 16.5036C170.403 15.4305 169.43 14.9865 168.57 14.3574C167.522 13.6173 166.586 12.9883 166.586 11.7301C166.586 10.287 168.046 9.36191 169.692 9.36191C170.59 9.36191 171.488 9.73194 171.975 10.213L171.301 10.9901Z" fill="#10147E"/>
<path d="M110.87 15.7265C111.507 14.5054 111.581 13.1363 111.357 12.0262H109.898C110.197 12.9883 110.234 14.0984 109.86 14.8384L105.669 10.9901C104.397 9.84296 103.911 9.13989 103.911 8.39982C103.911 7.58574 104.509 6.91968 105.744 6.91968C106.53 6.91968 107.278 7.32672 107.578 7.54874L108.214 6.51264C107.391 5.92058 106.53 5.62455 105.557 5.62455C103.462 5.62455 102.077 6.99368 102.077 8.51083C102.077 9.84296 103.05 10.731 103.761 11.3971C102.227 12.1002 100.955 13.4323 100.955 15.1345C100.955 15.9116 101.516 18.9829 105.594 18.9829C107.391 18.9829 108.887 18.1688 109.898 17.0587L112.03 18.9829L113.677 18.1688L110.87 15.7265ZM105.856 17.7247C103.873 17.7247 102.938 16.0966 102.938 14.9125C102.938 13.8393 103.424 12.8773 104.622 12.2482L109.037 16.1706C108.476 16.9106 107.278 17.7247 105.856 17.7247Z" fill="#10147E"/>
<path d="M58.2593 31.6951C58.2593 33.2948 57.8537 34.5526 57.0425 35.4686C56.2358 36.3846 55.1125 36.8426 53.6724 36.8426C52.2004 36.8426 51.0633 36.3937 50.2612 35.4959C49.4637 34.5936 49.0649 33.3221 49.0649 31.6815C49.0649 30.0545 49.466 28.7944 50.2681 27.9012C51.0701 27.0034 52.2095 26.5545 53.686 26.5545C55.1216 26.5545 56.2427 27.0102 57.0493 27.9217C57.856 28.8332 58.2593 30.091 58.2593 31.6951ZM50.2954 31.6951C50.2954 33.0487 50.5825 34.0763 51.1567 34.7781C51.7355 35.4754 52.5741 35.824 53.6724 35.824C54.7798 35.824 55.616 35.4754 56.1812 34.7781C56.7463 34.0809 57.0288 33.0532 57.0288 31.6951C57.0288 30.3507 56.7463 29.3322 56.1812 28.6395C55.6206 27.9422 54.7889 27.5936 53.686 27.5936C52.5786 27.5936 51.7355 27.9445 51.1567 28.6463C50.5825 29.3436 50.2954 30.3599 50.2954 31.6951ZM65.4507 36.7059V31.8592C65.4507 31.2485 65.3117 30.7928 65.0337 30.492C64.7557 30.1912 64.3205 30.0408 63.728 30.0408C62.9442 30.0408 62.37 30.2528 62.0054 30.6766C61.6408 31.1004 61.4585 31.8 61.4585 32.7752V36.7059H60.3237V29.2137H61.2466L61.4312 30.2391H61.4858C61.7183 29.8699 62.0441 29.5851 62.4634 29.3846C62.8826 29.1795 63.3498 29.077 63.8647 29.077C64.7671 29.077 65.4461 29.2957 65.9019 29.7332C66.3576 30.1662 66.5854 30.8612 66.5854 31.8182V36.7059H65.4507ZM70.0581 36.7059H68.9233V26.0692H70.0581V36.7059ZM73.5991 36.7059H72.4644V29.2137H73.5991V36.7059ZM72.3687 27.1834C72.3687 26.9237 72.4325 26.7345 72.5601 26.616C72.6877 26.493 72.8472 26.4315 73.0386 26.4315C73.2209 26.4315 73.3781 26.493 73.5103 26.616C73.6424 26.7391 73.7085 26.9282 73.7085 27.1834C73.7085 27.4386 73.6424 27.63 73.5103 27.7576C73.3781 27.8807 73.2209 27.9422 73.0386 27.9422C72.8472 27.9422 72.6877 27.8807 72.5601 27.7576C72.4325 27.63 72.3687 27.4386 72.3687 27.1834ZM81.1323 36.7059V31.8592C81.1323 31.2485 80.9933 30.7928 80.7153 30.492C80.4373 30.1912 80.0021 30.0408 79.4097 30.0408C78.6258 30.0408 78.0516 30.2528 77.687 30.6766C77.3224 31.1004 77.1401 31.8 77.1401 32.7752V36.7059H76.0054V29.2137H76.9282L77.1128 30.2391H77.1675C77.3999 29.8699 77.7257 29.5851 78.145 29.3846C78.5643 29.1795 79.0314 29.077 79.5464 29.077C80.4487 29.077 81.1278 29.2957 81.5835 29.7332C82.0392 30.1662 82.2671 30.8612 82.2671 31.8182V36.7059H81.1323ZM87.77 36.8426C86.6626 36.8426 85.7876 36.5054 85.145 35.8309C84.507 35.1564 84.188 34.2199 84.188 33.0213C84.188 31.8136 84.4842 30.8543 85.0767 30.1434C85.6737 29.4324 86.4735 29.077 87.4761 29.077C88.4149 29.077 89.1577 29.3869 89.7046 30.0067C90.2515 30.6219 90.5249 31.4354 90.5249 32.4471V33.1649H85.3638C85.3866 34.0444 85.6076 34.7121 86.0269 35.1678C86.4507 35.6235 87.0454 35.8514 87.811 35.8514C88.6177 35.8514 89.4152 35.6828 90.2036 35.3455V36.3573C89.8026 36.5304 89.422 36.6535 89.062 36.7264C88.7065 36.8039 88.2759 36.8426 87.77 36.8426ZM87.4624 30.0272C86.8608 30.0272 86.38 30.2231 86.02 30.6151C85.6646 31.007 85.4549 31.5493 85.3911 32.242H89.3081C89.3081 31.5265 89.1486 30.9796 88.8296 30.6014C88.5106 30.2186 88.0549 30.0272 87.4624 30.0272Z" fill="#10147E"/>
</g>
<defs>
<clipPath id="clip0_922_16942">
<rect width="172" height="41" fill="white"/>
</clipPath>
</defs>
</svg>
