<svg width="32" height="32" viewBox="0 0 32 32" fill="none" xmlns="http://www.w3.org/2000/svg">
<g id="icon/ui/cart">
<path id="Union" fill-rule="evenodd" clip-rule="evenodd" d="M0.800049 0.299805C0.523906 0.299805 0.300049 0.523662 0.300049 0.799805C0.300049 1.07595 0.523906 1.2998 0.800049 1.2998H5.39989C5.64261 1.2998 5.85027 1.47412 5.89233 1.71316L9.90631 24.5264L9.92059 24.6076C8.93683 25.3095 8.29894 26.4941 8.29894 27.817C8.29894 29.9325 9.93019 31.6941 11.9985 31.6941C14.0668 31.6941 15.6981 29.9325 15.6981 27.817C15.6981 26.6845 15.2306 25.6535 14.4789 24.9398H25.5159C24.7642 25.6535 24.2968 26.6845 24.2968 27.817C24.2968 29.9325 25.928 31.6941 27.9963 31.6941C30.0647 31.6941 31.6959 29.9325 31.6959 27.817C31.6959 25.7035 30.0677 23.9431 28.0022 23.9398L27.9963 23.9398H10.8184L9.80599 18.1856H27.2055C27.9008 18.1856 28.5049 17.7078 28.6651 17.0313L30.5911 8.89985C30.8142 7.95773 30.0997 7.05413 29.1315 7.05413H7.84743L6.8772 1.53987C6.75102 0.822741 6.12804 0.299805 5.39989 0.299805H0.800049ZM8.02338 8.05413L9.63004 17.1856H27.2055C27.4373 17.1856 27.6386 17.0263 27.6921 16.8008L29.618 8.66937C29.6924 8.35533 29.4542 8.05413 29.1315 8.05413H8.02338ZM9.29894 27.817C9.29894 26.2022 10.5327 24.9398 11.9985 24.9398C13.4643 24.9398 14.6981 26.2022 14.6981 27.817C14.6981 29.4318 13.4643 30.6941 11.9985 30.6941C10.5327 30.6941 9.29894 29.4318 9.29894 27.817ZM27.9963 24.9398C26.5305 24.9398 25.2968 26.2022 25.2968 27.817C25.2968 29.4318 26.5305 30.6941 27.9963 30.6941C29.4622 30.6941 30.6959 29.4318 30.6959 27.817C30.6959 26.2022 29.4622 24.9398 27.9963 24.9398Z" fill="#001A69"/>
</g>
</svg>
