<svg width="24" height="24" fill="none" xmlns="http://www.w3.org/2000/svg"><path d="M9.583 4.674a6.963 6.963 0 0 1 4.885 3.033 6.967 6.967 0 0 1 .726 6.358c2.372-1.713 3.615-5.516 2.287-8.5a6.946 6.946 0 0 0-1.207-1.849C13.318.453 9.01.785 7.2 4.76l-.004.003H7.2a6.975 6.975 0 0 1 2.384-.09Z" fill="#74C7E5"/><path d="M4.674 14.514A6.963 6.963 0 0 1 7.707 9.63a6.967 6.967 0 0 1 6.358-.727c-1.712-2.372-5.516-3.614-8.5-2.286a6.949 6.949 0 0 0-1.849 1.207c0-.001 0 0 0 0C.454 10.78.786 15.087 4.76 16.897l.003.004-.001-.002a6.99 6.99 0 0 1-.089-2.385Z" fill="#0092C6"/><path d="M14.396 19.523a6.963 6.963 0 0 1-4.884-3.033 6.967 6.967 0 0 1-.727-6.357c-2.372 1.712-3.614 5.516-2.287 8.5a6.943 6.943 0 0 0 1.208 1.849c2.955 3.261 7.262 2.93 9.073-1.045l.004-.003h-.003a6.98 6.98 0 0 1-2.384.09Z" fill="#006FAC"/><path d="M19.325 9.683a6.963 6.963 0 0 1-3.033 4.884 6.967 6.967 0 0 1-6.357.727c1.712 2.372 5.516 3.614 8.5 2.286a6.947 6.947 0 0 0 1.848-1.206l.002-.001c3.26-2.955 2.93-7.262-1.046-9.073l-.003-.004v.003c.17.79.195 1.596.09 2.384Z" fill="#005C8F"/><path d="M9.96 11.983a2.03 2.03 0 1 0 4.061 0 2.03 2.03 0 0 0-4.06 0Z" fill="#005C8F"/></svg>