<?xml version="1.0" encoding="UTF-8"?>
<svg width="151px" height="24px" viewBox="0 0 151 24" version="1.1" xmlns="http://www.w3.org/2000/svg" xmlns:xlink="http://www.w3.org/1999/xlink">
    <title>Sj-logo</title>
    <g id="Sj-logo" stroke="none" stroke-width="1" fill="none" fill-rule="evenodd">
        <g id="Sage_logo_journals_RGB_navy_onwhite" fill="#001F83" fill-rule="nonzero">
            <path d="M63.0209059,11.456446 C63.0209059,12.5226481 62.9372822,13.4006969 62.7700348,14.1010453 C62.6027875,14.8013937 62.3101045,15.3658537 61.8919861,15.7735192 C61.4738676,16.1811847 60.8989547,16.3902439 60.1672474,16.3902439 C59.3101045,16.3902439 58.3066202,16.087108 57.1777003,15.4808362 L57.010453,15.3763066 L56.9581882,15.3763066 L56.9581882,17.6864111 C57.4494774,17.9790941 58.0034843,18.2404181 58.6097561,18.4703833 C59.2160279,18.7003484 59.8745645,18.815331 60.5853659,18.815331 C61.9756098,18.815331 63.0522648,18.4808362 63.825784,17.8118467 C64.5888502,17.1428571 65.1114983,16.3066202 65.3728223,15.28223 C65.6341463,14.2682927 65.7700348,13.097561 65.7700348,11.7804878 L65.7700348,0.888501742 L63.0209059,0.888501742 L63.0209059,11.456446 Z" id="Path"></path>
            <path d="M78.28223,5.93728223 C77.2578397,5.33101045 76.1184669,5.02787456 74.8536585,5.02787456 C73.5888502,5.02787456 72.4181185,5.33101045 71.3937282,5.93728223 C70.369338,6.54355401 69.5644599,7.36933798 68.9790941,8.43554007 C68.3937282,9.50174216 68.1010453,10.6620209 68.1010453,11.9163763 C68.1010453,13.1707317 68.3937282,14.4250871 68.9790941,15.4808362 C69.5644599,16.5470383 70.369338,17.3728223 71.3937282,17.9686411 C72.4181185,18.5644599 73.5679443,18.8571429 74.8536585,18.8571429 C76.1393728,18.8571429 77.2578397,18.5644599 78.28223,17.9686411 C79.3066202,17.3728223 80.1114983,16.5470383 80.6968641,15.4808362 C81.28223,14.4250871 81.5749129,13.2334495 81.5749129,11.9163763 C81.5749129,10.5993031 81.28223,9.4912892 80.6968641,8.43554007 C80.1114983,7.37979094 79.3066202,6.54355401 78.28223,5.93728223 Z M78.3344948,14.2160279 C78.0209059,14.9059233 77.5714286,15.4494774 76.9756098,15.8675958 C76.3797909,16.2752613 75.6689895,16.4843206 74.8432056,16.4843206 C74.0174216,16.4843206 73.3379791,16.2752613 72.7317073,15.8675958 C72.1254355,15.4599303 71.6655052,14.9059233 71.3623693,14.2160279 C71.0487805,13.5261324 70.8919861,12.7630662 70.8919861,11.9268293 C70.8919861,11.0905923 71.0487805,10.358885 71.3623693,9.67944251 C71.6759582,9 72.1254355,8.45644599 72.7212544,8.04878049 C73.3170732,7.64111498 74.0278746,7.43205575 74.8432056,7.43205575 C75.6585366,7.43205575 76.3484321,7.63066202 76.9547038,8.03832753 C77.5609756,8.44599303 78.010453,8.98954704 78.3240418,9.66898955 C78.6376307,10.3484321 78.7944251,11.1114983 78.7944251,11.9372822 C78.7944251,12.7630662 78.6376307,13.5470383 78.3240418,14.2264808 L78.3344948,14.2160279 Z" id="Shape"></path>
            <path d="M92.4355401,12.5017422 C92.4355401,13.9651568 92.1637631,14.989547 91.630662,15.5853659 C91.087108,16.1811847 90.3449477,16.4738676 89.3937282,16.4738676 C88.4425087,16.4738676 87.6794425,16.1811847 87.1567944,15.5958188 C86.6341463,15.010453 86.3728223,13.9756098 86.3728223,12.4912892 L86.3728223,5.41463415 L83.6236934,5.41463415 L83.6236934,12.9616725 C83.6236934,14.9581882 84.1254355,16.4425087 85.1289199,17.4041812 C86.1324042,18.3763066 87.554007,18.8571429 89.3832753,18.8571429 C91.2125436,18.8571429 92.6132404,18.3763066 93.6376307,17.4041812 C94.6620209,16.4320557 95.174216,14.9581882 95.174216,12.9616725 L95.174216,5.41463415 L92.4250871,5.41463415 L92.4250871,12.4912892 L92.4355401,12.5017422 Z" id="Path"></path>
            <path d="M104.101045,5.11149826 C103.181185,5.11149826 102.418118,5.35191638 101.811847,5.84320557 C101.205575,6.33449477 100.724739,6.94076655 100.379791,7.69337979 C100.337979,7.77700348 100.317073,7.87108014 100.285714,7.95470383 L99.9825784,5.41463415 L97.8710801,5.41463415 L97.8710801,18.4494774 L100.620209,18.4494774 L100.620209,12.1358885 C100.620209,11.0592334 100.777003,10.1707317 101.101045,9.47038328 C101.425087,8.77003484 101.8223,8.26829268 102.313589,7.94425087 C102.804878,7.62020906 103.337979,7.46341463 103.923345,7.46341463 C104.268293,7.46341463 104.623693,7.50522648 104.989547,7.58885017 C105.355401,7.67247387 105.658537,7.76655052 105.898955,7.8815331 L105.898955,5.48780488 C105.700348,5.39372822 105.428571,5.31010453 105.10453,5.22648084 C104.780488,5.14285714 104.445993,5.1010453 104.121951,5.1010453 L104.101045,5.11149826 Z" id="Path"></path>
            <path d="M114.344948,5.09059233 C113.425087,5.09059233 112.620209,5.29965157 111.930314,5.70731707 C111.229965,6.11498258 110.686411,6.6271777 110.299652,7.21254355 C110.205575,7.35888502 110.111498,7.51567944 110.027875,7.65156794 L109.756098,5.41463415 L107.644599,5.41463415 L107.644599,18.4494774 L110.393728,18.4494774 L110.393728,11.728223 C110.393728,10.7770035 110.54007,9.97212544 110.832753,9.31358885 C111.125436,8.65505226 111.522648,8.17421603 112.013937,7.86062718 C112.505226,7.54703833 113.04878,7.3902439 113.634146,7.3902439 C115.651568,7.3902439 116.655052,8.74912892 116.655052,11.4773519 L116.655052,18.4494774 L119.404181,18.4494774 L119.404181,10.7874564 C119.404181,9.01045296 118.954704,7.62020906 118.055749,6.60627178 C117.156794,5.59233449 115.923345,5.08013937 114.355401,5.08013937 L114.344948,5.09059233 Z" id="Path"></path>
            <path d="M131.404181,6.16724739 C130.390244,5.39372822 129.125436,4.99651568 127.599303,4.99651568 C126.648084,4.99651568 125.675958,5.13240418 124.69338,5.40418118 C123.710801,5.67595819 122.905923,5.98954704 122.310105,6.33449477 L122.310105,8.91637631 L122.362369,8.91637631 C123.020906,8.43554007 123.783972,8.06968641 124.641115,7.80836237 C125.498258,7.54703833 126.365854,7.41114983 127.243902,7.41114983 C128.121951,7.41114983 128.905923,7.59930314 129.491289,7.97560976 C130.076655,8.35191638 130.369338,8.87456446 130.369338,9.55400697 L130.369338,10.2857143 L127.160279,10.7351916 C125.310105,11.0069686 123.888502,11.4773519 122.89547,12.1358885 C121.902439,12.7944251 121.400697,13.7770035 121.400697,15.0731707 C121.400697,16.2648084 121.829268,17.195122 122.675958,17.8641115 C123.522648,18.533101 124.620209,18.8675958 125.958188,18.8675958 C127.003484,18.8675958 127.891986,18.6480836 128.634146,18.2195122 C129.376307,17.7909408 129.961672,17.2473868 130.400697,16.5888502 C130.452962,16.5052265 130.484321,16.4216028 130.536585,16.3379791 L130.808362,18.4599303 L132.919861,18.4599303 L132.919861,9.81533101 C132.919861,8.16376307 132.407666,6.95121951 131.393728,6.17770035 L131.404181,6.16724739 Z M128.498258,16.3484321 C127.944251,16.630662 127.327526,16.7770035 126.648084,16.7770035 C125.937282,16.7770035 125.33101,16.6097561 124.839721,16.2857143 C124.348432,15.9616725 124.097561,15.4808362 124.097561,14.8536585 C124.097561,14.2264808 124.337979,13.7770035 124.808362,13.4425087 C125.289199,13.1080139 126.041812,12.8362369 127.087108,12.6376307 L130.379791,12.010453 L130.379791,13.1602787 C130.379791,13.912892 130.202091,14.5609756 129.857143,15.1045296 C129.512195,15.6480836 129.052265,16.0662021 128.498258,16.3484321 L128.498258,16.3484321 Z" id="Shape"></path>
            <rect id="Rectangle" x="135.616725" y="0.888501742" width="2.74912892" height="17.5609756"></rect>
            <path d="M149.916376,12.804878 C149.498258,12.2926829 148.996516,11.8954704 148.41115,11.6236934 C147.825784,11.3519164 147.083624,11.0696864 146.184669,10.7979094 C145.285714,10.5052265 144.627178,10.2439024 144.209059,10.0034843 C143.790941,9.7630662 143.581882,9.42857143 143.581882,8.98954704 C143.581882,8.49825784 143.801394,8.11149826 144.229965,7.81881533 C144.658537,7.53658537 145.254355,7.3902439 145.996516,7.3902439 C146.738676,7.3902439 147.449477,7.49477352 148.055749,7.71428571 C148.662021,7.93379791 149.236934,8.2369338 149.780488,8.62369338 L149.832753,8.62369338 L149.832753,6.26132404 C149.351916,5.94773519 148.777003,5.67595819 148.087108,5.43554007 C147.397213,5.19512195 146.644599,5.08013937 145.818815,5.08013937 C144.355401,5.08013937 143.184669,5.44599303 142.30662,6.16724739 C141.428571,6.88850174 140.989547,7.86062718 140.989547,9.09407666 C140.989547,9.87804878 141.188153,10.5156794 141.574913,10.9965157 C141.972125,11.4773519 142.442509,11.8536585 142.986063,12.1045296 C143.529617,12.3658537 144.250871,12.6271777 145.12892,12.8989547 C145.787456,13.097561 146.299652,13.2752613 146.655052,13.4320557 C147.010453,13.5888502 147.313589,13.7874564 147.56446,14.0383275 C147.815331,14.2891986 147.930314,14.5923345 147.930314,14.9581882 C147.930314,15.4494774 147.700348,15.8466899 147.229965,16.1393728 C146.759582,16.4320557 146.132404,16.5783972 145.348432,16.5783972 C144.56446,16.5783972 143.728223,16.4216028 142.965157,16.1080139 C142.202091,15.7944251 141.501742,15.4076655 140.874564,14.9581882 L140.8223,14.9581882 L140.8223,17.3519164 C141.45993,17.7700348 142.202091,18.1149826 143.027875,18.3972125 C143.853659,18.6794425 144.74216,18.804878 145.672474,18.804878 C147.083624,18.804878 148.243902,18.4494774 149.15331,17.7491289 C150.073171,17.0487805 150.522648,16.0662021 150.522648,14.8013937 C150.522648,13.9756098 150.313589,13.3066202 149.89547,12.7944251 L149.916376,12.804878 Z" id="Path"></path>
            <path d="M20.3519164,4.96515679 C18.6794425,4.96515679 16.3275261,5.5087108 14.9581882,6.33449477 L14.9581882,9.67944251 C16.1184669,8.728223 18.1358885,8.14285714 19.7770035,8.14285714 C21.28223,8.14285714 22.7142857,8.58188153 22.7142857,9.78397213 L22.7142857,10.358885 L19.9442509,10.641115 C16.358885,11.0487805 13.9651568,12.1777003 13.9651568,15.010453 C13.9651568,17.6027875 16.087108,18.8989547 18.5749129,18.8989547 C20.4878049,18.8989547 22.0243902,18.010453 22.9442509,16.641115 L23.2473868,18.4494774 L26.0174216,18.4494774 L26.0174216,10.1498258 C26.0174216,6.66898955 23.6655052,4.95470383 20.3519164,4.95470383 L20.3519164,4.96515679 Z M22.7038328,13.369338 C22.7038328,15.28223 21.3031359,16.3066202 19.630662,16.3066202 C18.4703833,16.3066202 17.4773519,15.7944251 17.4773519,14.6968641 C17.4773519,13.7038328 18.533101,13.2543554 19.9337979,13.0557491 L22.7038328,12.6167247 L22.7038328,13.358885 L22.7038328,13.369338 Z" id="Shape"></path>
            <path d="M8.05923345,8.16376307 C5.46689895,7.44250871 3.68989547,6.93031359 3.68989547,5.43554007 C3.68989547,4.03484321 4.95470383,3.29268293 6.7630662,3.25087108 C8.60278746,3.25087108 10.1811847,3.8989547 11.8850174,4.92334495 L11.8850174,1.26480836 C10.4111498,0.470383275 8.77003484,0.0418118467 6.73170732,0 C2.97909408,0 0,2.04878049 0,5.70731707 C0,8.6445993 1.8815331,9.97212544 4.98606272,10.7979094 C7.4738676,11.445993 9.08362369,11.9581882 9.08362369,13.4947735 C9.08362369,15.0313589 7.62020906,15.6898955 5.93728223,15.6898955 C3.95121951,15.6898955 1.73519164,14.8954704 0.031358885,13.6620209 L0.031358885,17.5191638 C1.2543554,18.3031359 3.54355401,18.8780488 5.96864111,18.9198606 C9.65853659,18.9512195 12.5958188,17.2473868 12.7630662,13.5574913 C12.8989547,10.5888502 11.1219512,9.01045296 8.04878049,8.16376307 L8.05923345,8.16376307 Z" id="Path"></path>
            <path d="M35.7700348,15.7003484 L32.0801394,15.6689895 C31.1602787,15.6689895 30.6480836,15.3658537 30.6794425,14.7804878 C30.7212544,14.445993 30.9407666,14.2369338 31.2648084,14.1114983 C32.0174216,14.3937282 32.8850174,14.5400697 33.825784,14.5400697 C37.0662021,14.5400697 39.533101,12.6271777 39.533101,9.7630662 C39.533101,8.44599303 39.0209059,7.29616725 38.1324042,6.44947735 L40.4216028,6.44947735 L40.4216028,3.34494774 C38.4982578,3.12543554 37.0557491,4.08710801 36.4285714,5.40418118 C35.6655052,5.1010453 34.7979094,4.95470383 33.8675958,4.95470383 C30.6585366,4.95470383 28.1602787,6.86759582 28.1602787,9.73170732 C28.1602787,11.0069686 28.5783972,12.1045296 29.3623693,12.9198606 C28.3275261,13.5156794 27.7526132,14.4146341 27.7526132,15.533101 C27.7526132,16.5156794 28.2125436,17.2891986 28.902439,17.8118467 C27.8571429,18.2404181 27.1777003,19.1498258 27.1777003,20.3832753 C27.1777003,23.0801394 30.2508711,24 33.6689895,24 C37.630662,24 40.7038328,22.630662 40.7038328,19.4634146 C40.7038328,16.8710801 38.6550523,15.7421603 35.7909408,15.7108014 L35.7700348,15.7003484 Z M33.825784,7.77700348 C35.2578397,7.77700348 36.2195122,8.59233449 36.2195122,9.72125436 C36.2195122,10.9547038 35.1637631,11.6968641 33.825784,11.6968641 C32.3937282,11.6968641 31.5052265,10.8397213 31.5052265,9.72125436 C31.5052265,8.48780488 32.5296167,7.77700348 33.825784,7.77700348 L33.825784,7.77700348 Z M33.9303136,21.1672474 C32.0905923,21.1672474 30.5121951,20.9268293 30.5121951,19.8397213 C30.5121951,19.3066202 30.8989547,18.9198606 31.4529617,18.7212544 L35.2264808,18.7526132 C36.5226481,18.7839721 37.4843206,18.9198606 37.4843206,19.6724739 C37.4843206,20.8013937 35.5714286,21.1777003 33.9303136,21.1777003 L33.9303136,21.1672474 Z" id="Shape"></path>
            <path d="M47.6864111,4.93379791 C43.7247387,4.93379791 40.8919861,7.97560976 40.8919861,12 C40.8919861,16.0243902 43.8292683,18.9303136 48.0313589,18.9303136 C49.7770035,18.9303136 51.8885017,18.5226481 53.2578397,17.738676 L53.2578397,14.5609756 C52.1289199,15.4494774 50.3519164,15.9616725 48.6794425,15.9616725 C46.358885,15.9616725 45,14.9790941 44.5818815,13.0557491 L53.8013937,13.0557491 C54.2090592,9.64808362 53.3310105,4.93379791 47.6864111,4.93379791 L47.6864111,4.93379791 Z M44.5191638,10.7038328 C44.8013937,9 45.8675958,8.00696864 47.5505226,8.00696864 C49.2334495,8.00696864 50.184669,9.1358885 50.2160279,10.7038328 L44.5191638,10.7038328 L44.5191638,10.7038328 Z" id="Shape"></path>
        </g>
    </g>
</svg>